<?xml version="1.0" encoding="UTF-8"?>
<svg version="1.1" xmlns="http://www.w3.org/2000/svg" width="512" height="512">
<path d="M0 0 C30.52069323 -0.97062275 58.77161875 7.30885538 81.38964844 28.44140625 C93.16502842 39.83831738 107.44466184 59.18281035 108.5625 76.1875 C107.9346013 80.44325783 106.5772515 83.76693243 104.6796875 87.60546875 C103.75567489 90.86075455 104.40225414 92.0403872 106 95 C107.48278591 97.1695204 108.98926871 99.27417521 110.5625 101.375 C114.27267529 106.45265546 117.74959558 111.61561395 121 117 C121.37326416 117.61020996 121.74652832 118.22041992 122.13110352 118.84912109 C125.33762768 124.23952016 127.9484636 129.63174443 127 136 C124.12988497 139.60814461 121.47406269 141.82822168 117 143 C114.6668271 143.0273613 112.3331398 143.03005215 110 143 C110.2165625 143.92941406 110.433125 144.85882813 110.65625 145.81640625 C111.07390625 147.67072266 111.07390625 147.67072266 111.5 149.5625 C111.91765625 151.38974609 111.91765625 151.38974609 112.34375 153.25390625 C113.30138197 158.72038874 113.24369078 163.61067327 112 169 C111.65259077 170.99760305 111.32033957 172.99787771 111 175 C110.62875 176.5778125 110.62875 176.5778125 110.25 178.1875 C109.95279638 182.71985526 111.009993 186.0539625 112.28515625 190.3671875 C114.06926734 196.9381759 112.93742923 202.96130087 110 209 C103.53000751 215.64025545 95.04834869 216.13066197 86.1875 216.25 C75.59492823 216.19719555 65.35150367 214.10712426 55 212 C43.24447199 235.5894262 40.08444743 262.32992419 47 288 C48.71857502 292.56496489 50.65183416 296.13829955 53.6875 299.9375 C72.99775262 326.01338858 91 376.03731557 91 409 C24.01 409 -42.98 409 -112 409 C-112 398.87094572 -112 398.87094572 -111.46850586 395.05151367 C-111.35067749 394.18605927 -111.23284912 393.32060486 -111.1114502 392.42892456 C-110.91513 391.06225143 -110.91513 391.06225143 -110.71484375 389.66796875 C-110.57856567 388.69030548 -110.4422876 387.71264221 -110.30187988 386.70535278 C-109.85554068 383.53146515 -109.39789773 380.35937719 -108.9375 377.1875 C-108.78105011 376.10052826 -108.62460022 375.01355652 -108.46340942 373.89364624 C-94.73044398 278.92408343 -94.73044398 278.92408343 -68 246 C-58.64456753 229.52104738 -49.93147487 209.04781468 -53.62890625 189.7109375 C-57.14912019 177.13243245 -61.91007295 167.56330759 -71.44921875 158.57421875 C-87.00929161 142.87117431 -94.95626004 119.91470465 -95.03466797 98.0859375 C-94.6116412 72.63283412 -84.96219005 49.56909958 -66.7800293 31.63134766 C-49.29022174 15.16864076 -26.86071253 7.30650837 -2.97265625 7.89453125 C-1.99167969 7.92933594 -1.01070313 7.96414062 0 8 C0 5.36 0 2.72 0 0 Z " fill="#B2D3FE" transform="translate(127,50)"/>
<path d="M0 0 C0.72875336 -0.00067474 1.45750671 -0.00134949 2.20834351 -0.00204468 C16.17935644 0.01834262 29.80864259 1.11067981 43.625 3.25 C44.82125 3.43224121 46.0175 3.61448242 47.25 3.80224609 C50.98388406 4.38420693 54.71113124 4.99680464 58.4375 5.625 C59.56389893 5.80957764 60.69029785 5.99415527 61.85083008 6.18432617 C77.93044763 9.06032626 90.43785189 14.82359457 100.21875 28.203125 C104.625 34.61666667 104.625 34.61666667 104.625 37.25 C105.35203125 37.07339844 106.0790625 36.89679688 106.828125 36.71484375 C113.2036255 35.65522844 119.08064609 37.59288224 124.5 40.9375 C129.64212031 44.65327245 132.3605816 48.98654768 133.625 55.25 C135.95017165 84.98974723 127.3751102 117.2196202 108.1484375 140.4609375 C103.19297286 145.93803 98.47801032 149.50879587 91.625 152.25 C91.295 170.4 90.965 188.55 90.625 207.25 C97.885 207.25 105.145 207.25 112.625 207.25 C122.93169668 211.83075408 122.93169668 211.83075408 125.9375 214.4375 C126.55238281 214.94667969 127.16726563 215.45585937 127.80078125 215.98046875 C134.61421249 224.45713588 134.19240972 233.76877475 134.12670898 244.10498047 C134.13049666 245.80585679 134.13600038 247.50673002 134.14308167 249.20759583 C134.15698876 253.80435756 134.14590289 258.40074307 134.12937045 262.99748373 C134.11548255 267.81270713 134.12198377 272.62790953 134.12550354 277.44314575 C134.12820115 285.52140344 134.11476341 293.59951214 134.09155273 301.67773438 C134.06489177 311.02158128 134.06321468 320.36518001 134.0749411 329.70905197 C134.08570884 338.70217626 134.07954321 347.69521065 134.06538582 356.68832779 C134.05962272 360.51524095 134.05971109 364.34208839 134.06445122 368.16900253 C134.06921375 372.66873255 134.05914964 377.1681896 134.03749657 381.66786766 C134.0319206 383.3210896 134.0314708 384.97433773 134.03644943 386.62756157 C134.04238178 388.87936306 134.02993822 391.13032396 134.01268005 393.38204956 C134.00903521 395.27400968 134.00903521 395.27400968 134.00531673 397.20419121 C133.625 400.25 133.625 400.25 132.28827 402.1167469 C128.73432807 404.53819123 125.42441032 404.38187817 121.2616272 404.39717102 C120.61330693 404.40084771 119.96498666 404.4045244 119.29702032 404.4083125 C117.12069435 404.41934147 114.94441613 404.42319179 112.76806641 404.42700195 C111.20925241 404.43326708 109.6504399 404.43991393 108.09162903 404.44691467 C102.96995075 404.46794731 97.84827219 404.47831462 92.7265625 404.48828125 C90.96374877 404.49232876 89.2009352 404.49644568 87.4381218 404.50063133 C79.1583795 404.5196793 70.87864612 404.53391255 62.59888613 404.5422433 C53.03765619 404.55202214 43.47665735 404.57836008 33.91550887 404.61874419 C26.52689434 404.64888272 19.13834616 404.66370992 11.74967134 404.66702431 C7.33571201 404.66937693 2.9219997 404.67836497 -1.49189377 404.70348549 C-5.64355396 404.72673249 -9.79480387 404.73101322 -13.94651222 404.72072411 C-15.46990764 404.72022785 -16.99332303 404.72657485 -18.51665688 404.74028015 C-20.59748428 404.75795338 -22.67683184 404.75091771 -24.75765991 404.73774719 C-25.92167517 404.74013555 -27.08569042 404.7425239 -28.28497887 404.74498463 C-32.05136835 404.14165384 -33.70456015 402.9305051 -36.375 400.25 C-37.60407345 396.56277965 -37.52254269 393.1560942 -37.52026367 389.31640625 C-37.52362228 388.50768066 -37.5269809 387.69895508 -37.53044128 386.86572266 C-37.53996592 384.18129956 -37.54189644 381.49693897 -37.54296875 378.8125 C-37.54618485 376.93416316 -37.54954919 375.05582656 -37.55305481 373.17749023 C-37.55905304 369.22639386 -37.56089445 365.27531936 -37.56030273 361.32421875 C-37.56020211 356.31411372 -37.57374622 351.30415363 -37.59107494 346.29408264 C-37.60232813 342.40388374 -37.60421777 338.51371813 -37.60369301 334.62350464 C-37.60485736 332.78033966 -37.60918989 330.93717335 -37.61702538 329.09402466 C-37.65322766 319.68253811 -37.4532398 310.37620475 -36.4934082 301.0078125 C-36.41687861 300.25355484 -36.34034903 299.49929718 -36.26150036 298.72218323 C-33.23749151 272.18224092 -18.13948569 246.88401287 2.44384766 230.13867188 C9.08685284 224.95251881 16.11054465 221.04851589 23.625 217.25 C23.625 209.33 23.625 201.41 23.625 193.25 C21.645 192.92 19.665 192.59 17.625 192.25 C4.16947762 186.67670671 -7.15293136 175.78943243 -13.1875 162.5625 C-18.19201829 149.12113175 -17.66208301 135.05304427 -17.58081055 120.91796875 C-17.56249956 117.62492125 -17.56030193 114.33215579 -17.56054688 111.0390625 C-17.55563154 108.90885178 -17.54980316 106.77864293 -17.54296875 104.6484375 C-17.54185593 103.6824765 -17.5407431 102.7165155 -17.53959656 101.72128296 C-17.49832627 95.67341078 -17.10085811 89.75695364 -16.41122437 83.74664307 C-16.14054326 81.04520034 -16.14054326 81.04520034 -18.18359375 78.4609375 C-19.05113281 77.85507813 -19.91867187 77.24921875 -20.8125 76.625 C-34.14231068 66.22034222 -50.15221205 44.37785059 -53.375 27.25 C-53.95840971 22.24934535 -53.86231198 19.33380803 -51 15.125 C-42.87740749 5.49122748 -30.02618426 1.79764946 -17.86669922 0.4309082 C-11.92133041 -0.00075144 -5.95827251 0.00497514 0 0 Z " fill="#64B5F3" transform="translate(363.375,57.75)"/>
<path d="M0 0 C3.61465597 3.30033806 4.25174963 6.3940102 4.5625 11.1875 C4.44443537 22.10191936 -2.35712128 31.3156312 -7.83666992 40.36938477 C-8.26181885 41.07248779 -8.68696777 41.77559082 -9.125 42.5 C-9.54821533 43.19859131 -9.97143066 43.89718262 -10.4074707 44.61694336 C-15.37457633 53.01291044 -19.35907395 62.33881739 -21 72 C-20.16082031 72.12955078 -20.16082031 72.12955078 -19.3046875 72.26171875 C-8.30291794 74.18968158 2.63889109 77.81620178 12 84 C12.80953125 84.52851563 13.6190625 85.05703125 14.453125 85.6015625 C43.09276609 106.24670255 50.01774502 156.75708755 57.8125 188.73828125 C58.01936432 189.58408752 58.22622864 190.4298938 58.43936157 191.30133057 C58.72654556 192.49275665 58.72654556 192.49275665 59.01953125 193.70825195 C59.18557861 194.39514603 59.35162598 195.0820401 59.52270508 195.78974915 C60.10965655 198.50779606 60.54285578 201.25713467 61 204 C-5.99 204 -72.98 204 -142 204 C-142 193.87094572 -142 193.87094572 -141.46850586 190.05151367 C-141.35067749 189.18605927 -141.23284912 188.32060486 -141.1114502 187.42892456 C-140.98057007 186.51780914 -140.84968994 185.60669373 -140.71484375 184.66796875 C-140.57856567 183.69030548 -140.4422876 182.71264221 -140.30187988 181.70535278 C-139.85554068 178.53146515 -139.39789773 175.35937719 -138.9375 172.1875 C-138.78105011 171.10052826 -138.62460022 170.01355652 -138.46340942 168.89364624 C-132.70517581 129.07290021 -125.70856303 91.4560835 -107.1875 55.375 C-106.73157471 54.47966553 -106.27564941 53.58433105 -105.8059082 52.66186523 C-105.14981567 51.41771851 -105.14981567 51.41771851 -104.48046875 50.1484375 C-104.09785889 49.41802246 -103.71524902 48.68760742 -103.32104492 47.93505859 C-101.82058324 45.73719142 -100.19633269 44.47700976 -98 43 C-97.69707031 43.81984375 -97.39414063 44.6396875 -97.08203125 45.484375 C-96.66308594 46.56203125 -96.24414062 47.6396875 -95.8125 48.75 C-95.40644531 49.81734375 -95.00039062 50.8846875 -94.58203125 51.984375 C-92.4278158 56.09068198 -89.95533288 58.21329679 -85.66015625 59.94140625 C-77.64084839 61.85880467 -69.56878399 62.97529897 -61.39086914 63.99829102 C-60.00242798 64.1731604 -60.00242798 64.1731604 -58.5859375 64.3515625 C-57.33369385 64.50359131 -57.33369385 64.50359131 -56.05615234 64.65869141 C-54 65 -54 65 -52 66 C-51.87625 65.22785156 -51.7525 64.45570313 -51.625 63.66015625 C-51.13403436 60.78493871 -50.61048308 57.92309978 -50.0625 55.05859375 C-48.16000747 45.03939242 -46.38535654 35.21194821 -46 25 C-44.68 24.67 -43.36 24.34 -42 24 C-41.36374622 38.86948644 -44.11249092 52.69065806 -48 67 C-46.89205078 67.07347656 -46.89205078 67.07347656 -45.76171875 67.1484375 C-38.7296609 67.66668319 -31.90958938 68.59903995 -25 70 C-24.88785156 68.99066406 -24.77570313 67.98132813 -24.66015625 66.94140625 C-22.13135806 51.8434336 -12.74416473 37.92782072 -4.4453125 25.40234375 C-1.27160558 20.1271282 -0.75533914 15.91212894 -0.9375 9.8125 C-1.11958369 2.23916737 -1.11958369 2.23916737 0 0 Z " fill="#B2D3FE" transform="translate(157,255)"/>
<path d="M0 0 C2.04435472 1.46081286 3.94924134 3.00377925 5.8515625 4.64453125 C6.4703125 5.15757813 7.0890625 5.670625 7.7265625 6.19921875 C12.89742233 10.85745024 16.27980849 15.82215415 17.8515625 22.64453125 C17.76613602 24.38836671 17.61944194 26.12973026 17.42895508 27.86523438 C16.53291078 36.53374297 15.72790372 44.54966652 21.15405273 51.86157227 C25.57528502 56.90636026 30.55182728 61.30732324 35.6015625 65.70703125 C38.14091518 68.02833187 40.66308463 70.36703628 43.18170166 72.71080017 C44.74182819 74.15065267 46.31711697 75.57431177 47.90960693 76.97828674 C53.0557191 81.56945353 57.39778385 85.80102609 58.2421875 92.953125 C58.19578125 93.98566406 58.149375 95.01820313 58.1015625 96.08203125 C58.06546875 97.13261719 58.029375 98.18320313 57.9921875 99.265625 C57.94578125 100.05066406 57.899375 100.83570313 57.8515625 101.64453125 C58.81835938 101.36738281 59.78515625 101.09023437 60.78125 100.8046875 C73.0321241 97.36351941 84.08384708 96.47895569 96.8515625 96.64453125 C96.8515625 97.63453125 96.8515625 98.62453125 96.8515625 99.64453125 C95.61664063 99.68191406 94.38171875 99.71929687 93.109375 99.7578125 C81.47263027 100.18430821 70.28434162 101.44910628 58.8515625 103.64453125 C58.92375 104.74925781 58.9959375 105.85398437 59.0703125 106.9921875 C59.85760772 119.88502383 59.96479772 132.73048992 59.8515625 145.64453125 C57.78884611 145.33346275 55.72639784 145.02061609 53.6640625 144.70703125 C52.51550781 144.53300781 51.36695313 144.35898437 50.18359375 144.1796875 C47.38831038 143.73073812 44.62222664 143.22370963 41.8515625 142.64453125 C29.70534786 167.0179353 28.03379158 192.20833902 33.8515625 218.64453125 C34.19697081 220.64248125 34.53470286 222.64185527 34.8515625 224.64453125 C34.18511719 224.19722656 33.51867187 223.74992188 32.83203125 223.2890625 C21.06948581 215.57349074 9.30303934 211.35038946 -4.1484375 207.64453125 C-2.74121352 193.60288328 3.90195801 182.33744807 11.18066406 170.49755859 C18.05266963 159.71360947 18.05266963 159.71360947 20.2265625 147.39453125 C20.20722656 145.93273437 20.20722656 145.93273437 20.1875 144.44140625 C19.8391201 141.54094102 19.05959229 139.29253255 17.8515625 136.64453125 C17.5215625 136.97453125 17.1915625 137.30453125 16.8515625 137.64453125 C16.91300893 139.36715006 16.97915142 141.08974601 17.07055664 142.81103516 C17.6317542 155.69073884 12.21113546 163.65440399 5.25366211 174.14404297 C-0.96208566 183.72430215 -5.35725452 194.58613013 -8.1484375 205.64453125 C-13.50654719 205.81351237 -18.34192922 205.20964547 -23.5859375 204.14453125 C-24.31748047 204.00144531 -25.04902344 203.85835937 -25.80273438 203.7109375 C-27.58579236 203.36131829 -29.36728953 203.00375437 -31.1484375 202.64453125 C-30.59887145 197.80311608 -29.87007535 193.19568288 -28.7109375 188.45703125 C-26.59972166 178.96690905 -25.91990864 169.32046909 -25.1484375 159.64453125 C-26.1384375 159.97453125 -27.1284375 160.30453125 -28.1484375 160.64453125 C-28.25800781 161.74667969 -28.36757812 162.84882813 -28.48046875 163.984375 C-29.30622071 171.99630456 -30.26124061 179.95849515 -31.6484375 187.89453125 C-31.76678955 188.58409912 -31.8851416 189.27366699 -32.00708008 189.98413086 C-32.73726292 194.01622525 -33.81980241 197.77457463 -35.1484375 201.64453125 C-39.27607738 201.14238621 -43.4018206 200.62715453 -47.52636719 200.1003418 C-48.92631914 199.92333453 -50.32670948 199.74975613 -51.72753906 199.57983398 C-70.35416595 197.31461295 -70.35416595 197.31461295 -75.9609375 191.95703125 C-78.94862332 187.4328213 -81.33826629 183.3989858 -80.95703125 177.8671875 C-79.96036092 173.89495069 -78.26996855 170.66875596 -76.3359375 167.08203125 C-67.67035242 150.29992551 -63.36633728 131.79441402 -68.859375 113.37890625 C-70.85809386 107.58867829 -73.41625232 102.12711617 -76.1484375 96.64453125 C-73.07910635 98.04850754 -70.36615567 99.81831453 -67.58129883 101.71630859 C-57.21784284 108.71225748 -46.3537415 113.19021352 -34.125 116.00390625 C-33.47273438 116.2153125 -32.82046875 116.42671875 -32.1484375 116.64453125 C-26.76938301 127.40264024 -28.92715143 143.97424424 -29.1484375 155.64453125 C-27.8284375 155.64453125 -26.5084375 155.64453125 -25.1484375 155.64453125 C-25.72879988 142.9717309 -26.37766371 130.30724343 -27.1484375 117.64453125 C-22.1984375 117.64453125 -17.2484375 117.64453125 -12.1484375 117.64453125 C-1.77223788 142.70403221 -1.77223788 142.70403221 -5.1484375 151.14453125 C-5.4784375 151.63953125 -5.8084375 152.13453125 -6.1484375 152.64453125 C-4.16352108 152.37776921 -4.16352108 152.37776921 -2.1484375 151.64453125 C1.23017232 141.50870179 -2.98076788 132.12189118 -6.48413086 122.59228516 C-7.1541184 120.6278748 -7.67352273 118.66411548 -8.1484375 116.64453125 C-5.77864583 116.17057292 -3.40885417 115.69661458 -1.0390625 115.22265625 C0.39179688 114.93648437 0.39179688 114.93648437 1.8515625 114.64453125 C4.57291667 114.10026042 7.29427083 113.55598958 10.015625 113.01171875 C10.62148437 112.89054687 11.22734375 112.769375 11.8515625 112.64453125 C11.3565625 111.48953125 10.8615625 110.33453125 10.3515625 109.14453125 C8.69593293 104.79170233 8.60380645 101.26931092 8.8515625 96.64453125 C7.97113281 96.92167969 7.09070313 97.19882813 6.18359375 97.484375 C5.02214844 97.84660156 3.86070312 98.20882812 2.6640625 98.58203125 C1.51550781 98.94167969 0.36695313 99.30132812 -0.81640625 99.671875 C-18.59889648 104.86277778 -38.03788425 101.25958237 -54.07006836 92.4909668 C-58.97912478 89.60816473 -63.39704265 86.3011949 -67.6484375 82.51953125 C-68.1947583 82.04128906 -68.7410791 81.56304687 -69.30395508 81.0703125 C-72.03143276 78.46485472 -73.15363062 76.62557034 -74.15625 72.96484375 C-74.1484375 69.64453125 -74.1484375 69.64453125 -71.5234375 66.64453125 C-57.12434878 55.90327555 -57.12434878 55.90327555 -49.1484375 56.64453125 C-49.56996094 55.7525 -49.99148437 54.86046875 -50.42578125 53.94140625 C-50.97363281 52.7709375 -51.52148438 51.60046875 -52.0859375 50.39453125 C-52.63121094 49.234375 -53.17648438 48.07421875 -53.73828125 46.87890625 C-57.47333761 38.31207338 -56.96587884 29.2652705 -54.24609375 20.41015625 C-49.66842525 8.87638651 -41.99203041 1.68441882 -30.97265625 -3.62890625 C-20.53937221 -7.784347 -9.28177519 -5.85595635 0 0 Z " fill="#B2D2FD" transform="translate(140.1484375,119.35546875)"/>
<path d="M0 0 C0.72875336 -0.00067474 1.45750671 -0.00134949 2.20834351 -0.00204468 C16.17935644 0.01834262 29.80864259 1.11067981 43.625 3.25 C44.82125 3.43224121 46.0175 3.61448242 47.25 3.80224609 C50.98388406 4.38420693 54.71113124 4.99680464 58.4375 5.625 C59.56389893 5.80957764 60.69029785 5.99415527 61.85083008 6.18432617 C77.93044763 9.06032626 90.43785189 14.82359457 100.21875 28.203125 C104.625 34.61666667 104.625 34.61666667 104.625 37.25 C105.35203125 37.07339844 106.0790625 36.89679688 106.828125 36.71484375 C113.2036255 35.65522844 119.08064609 37.59288224 124.5 40.9375 C129.64212031 44.65327245 132.3605816 48.98654768 133.625 55.25 C135.94930627 84.97867865 127.38303666 117.23657431 108.14453125 140.4609375 C103.16768728 145.97018803 98.01698726 150.54415679 90.625 152.25 C85.04979619 146.47568177 82.43966436 138.74653719 82.125 130.8125 C82.32686544 124.33598371 83.82563934 118.15166225 85.18359375 111.84204102 C86.71683767 104.44931522 87.96938214 96.76272374 86.625 89.25 C84.74607986 86.93985229 83.27748462 85.57624231 80.625 84.25 C74.19 83.755 74.19 83.755 67.625 83.25 C67.625 94.14 67.625 105.03 67.625 116.25 C61.33296982 116.25 60.25753133 115.99545086 55.625 112.25 C51.89616703 108.50111954 49.78697093 105.3863146 49.51147461 100.05175781 C49.51932983 98.88918457 49.51932983 98.88918457 49.52734375 97.703125 C49.53217773 96.43662109 49.53217773 96.43662109 49.53710938 95.14453125 C49.54967773 93.83548828 49.54967773 93.83548828 49.5625 92.5 C49.56701172 91.61183594 49.57152344 90.72367187 49.57617188 89.80859375 C49.587926 87.62232671 49.60435751 85.43619821 49.625 83.25 C48.69042969 83.37117188 47.75585938 83.49234375 46.79296875 83.6171875 C42.40589547 84.18015559 38.01610553 84.71947113 33.625 85.25 C32.43849854 85.39405273 32.43849854 85.39405273 31.22802734 85.54101562 C2.28312439 88.99817649 2.28312439 88.99817649 -9.375 84.25 C-10.19484375 83.93289062 -11.0146875 83.61578125 -11.859375 83.2890625 C-25.16759315 77.46155082 -32.81902916 65.04265207 -40.375 53.25 C-40.80264648 52.58709961 -41.23029297 51.92419922 -41.67089844 51.24121094 C-55.16211125 30.15137865 -55.16211125 30.15137865 -53.375 19.25 C-49.44785441 11.16560264 -42.11740448 6.91783438 -33.8984375 4.02734375 C-22.519984 0.6284267 -11.7898744 0.0098445 0 0 Z " fill="#272D4F" transform="translate(363.375,57.75)"/>
<path d="M0 0 C0.78375 0.268125 1.5675 0.53625 2.375 0.8125 C4.169375 1.4003125 4.169375 1.4003125 6 2 C6.70382812 2.26425781 7.40765625 2.52851563 8.1328125 2.80078125 C20.32776142 7.04687733 33.53578227 4.84433357 46.125 3.5 C48.20080002 3.28401243 50.27678797 3.07005314 52.35299683 2.85803223 C54.20984205 2.66758065 56.06612381 2.47165832 57.92236328 2.27539062 C61 2 61 2 65 2 C65.05607422 3.93552734 65.05607422 3.93552734 65.11328125 5.91015625 C65.17897702 7.62763149 65.2454231 9.34507815 65.3125 11.0625 C65.33505859 11.91005859 65.35761719 12.75761719 65.38085938 13.63085938 C65.67640619 20.58964346 66.72127095 25.61528355 71.6875 30.8125 C75.50501383 33.59689962 75.50501383 33.59689962 83 35 C83 24.11 83 13.22 83 2 C97.76470588 2 97.76470588 2 102 6 C105.78062356 13.56124712 102.71034222 25.34165615 101 33.1875 C98.20931396 46.21763135 97.93918049 55.69469978 104 68 C104.66 68.66 105.32 69.32 106 70 C106.24050903 72.40444946 106.24050903 72.40444946 106.22705078 75.45947266 C106.22689972 76.60050446 106.22674866 77.74153625 106.22659302 78.91714478 C106.21627045 80.15362762 106.20594788 81.39011047 106.1953125 82.6640625 C106.1924826 83.92640717 106.18965271 85.18875183 106.18673706 86.48934937 C106.17742131 89.84646944 106.15944835 93.20331912 106.1373291 96.56036377 C106.1168755 99.98553122 106.1077364 103.41072659 106.09765625 106.8359375 C106.07556458 113.55736671 106.04206377 120.27866773 106 127 C105.16366531 127.11876999 104.32733063 127.23753998 103.46565247 127.35990906 C96.92740154 128.3211425 90.56447907 129.43433624 84.19921875 131.20703125 C83.43430618 131.41430344 82.66939362 131.62157562 81.88130188 131.83512878 C80.28331474 132.26962548 78.68623792 132.70748398 77.09008789 133.14868164 C74.70339497 133.80810833 72.31396681 134.45670291 69.92382812 135.10351562 C56.39744739 138.78564525 42.96027372 142.74121819 29.8125 147.625 C29.02037109 147.91117188 28.22824219 148.19734375 27.41210938 148.4921875 C24.07798157 149.7218742 21.12464681 150.92444639 18.07421875 152.7734375 C17.38972656 153.17820312 16.70523437 153.58296875 16 154 C15.34 153.67 14.68 153.34 14 153 C21.41655921 145.43922992 29.74196475 140.9791114 39 136 C39 128.08 39 120.16 39 112 C36.03 111.505 36.03 111.505 33 111 C19.54447762 105.42670671 8.22206864 94.53943243 2.1875 81.3125 C-2.82885908 67.83711742 -2.2869835 53.72858343 -2.20581055 39.55810547 C-2.18746173 36.24308617 -2.18530215 32.92834629 -2.18554688 29.61328125 C-2.1806331 27.47656012 -2.1748054 25.33984085 -2.16796875 23.203125 C-2.16685593 22.22684143 -2.1657431 21.25055786 -2.16459656 20.24468994 C-2.05450552 4.10901105 -2.05450552 4.10901105 0 0 Z " fill="#FDB59D" transform="translate(348,139)"/>
<path d="M0 0 C3.06933115 1.40397629 5.78228183 3.17378328 8.56713867 5.07177734 C18.93059466 12.06772623 29.794696 16.54568227 42.0234375 19.359375 C43.00183594 19.67648438 43.00183594 19.67648438 44 20 C49.37905449 30.75810899 47.22128607 47.32971299 47 59 C48.32 59 49.64 59 51 59 C50.41963762 46.32719965 49.77077379 33.66271218 49 21 C53.95 21 58.9 21 64 21 C74.37619962 46.05950096 74.37619962 46.05950096 71 54.5 C70.67 54.995 70.34 55.49 70 56 C71.98491642 55.73323796 71.98491642 55.73323796 74 55 C77.37860982 44.86417054 73.16766962 35.47735993 69.66430664 25.94775391 C68.9943191 23.98334355 68.47491477 22.01958423 68 20 C74.98443993 18.57584088 81.98305518 17.25397873 89 16 C89.31710938 16.67804688 89.63421875 17.35609375 89.9609375 18.0546875 C96.39763213 30.8925149 105.31072534 37.99347814 118 44 C116.71664665 48.00382589 115.24853072 51.83746724 113.5625 55.6875 C104.68361194 76.79777663 105.14096357 99.92033706 110 122 C110.34540831 123.99795 110.68314036 125.99732402 111 128 C110.33355469 127.55269531 109.66710937 127.10539062 108.98046875 126.64453125 C97.21792331 118.92895949 85.45147684 114.70585821 72 111 C73.40722398 96.95835203 80.05039551 85.69291682 87.32910156 73.85302734 C94.20110713 63.06907822 94.20110713 63.06907822 96.375 50.75 C96.35566406 49.28820312 96.35566406 49.28820312 96.3359375 47.796875 C95.9875576 44.89640977 95.20802979 42.6480013 94 40 C93.67 40.33 93.34 40.66 93 41 C93.06144643 42.72261881 93.12758892 44.44521476 93.21899414 46.16650391 C93.7801917 59.04620759 88.35957296 67.00987274 81.40209961 77.49951172 C75.18635184 87.0797709 70.79118298 97.94159888 68 109 C62.64189031 109.16898112 57.80650828 108.56511422 52.5625 107.5 C51.83095703 107.35691406 51.09941406 107.21382813 50.34570312 107.06640625 C48.56264514 106.71678704 46.78114797 106.35922312 45 106 C45.54956605 101.15858483 46.27836215 96.55115163 47.4375 91.8125 C49.54871584 82.3223778 50.22852886 72.67593784 51 63 C50.01 63.33 49.02 63.66 48 64 C47.89042969 65.10214844 47.78085938 66.20429688 47.66796875 67.33984375 C46.84221679 75.35177331 45.88719689 83.3139639 44.5 91.25 C44.38164795 91.93956787 44.2632959 92.62913574 44.14135742 93.33959961 C43.41117458 97.371694 42.32863509 101.13004338 41 105 C36.87236012 104.49785496 32.7466169 103.98262328 28.62207031 103.45581055 C27.22211836 103.27880328 25.82172802 103.10522488 24.42089844 102.93530273 C5.79427155 100.6700817 5.79427155 100.6700817 0.1875 95.3125 C-2.80018582 90.78829005 -5.18982879 86.75445455 -4.80859375 81.22265625 C-3.81192342 77.25041944 -2.12153105 74.02422471 -0.1875 70.4375 C8.47808508 53.65539426 12.78210022 35.14988277 7.2890625 16.734375 C5.29034364 10.94414704 2.73218518 5.48258492 0 0 Z " fill="#F04E5A" transform="translate(64,216)"/>
<path d="M0 0 C0 7.26 0 14.52 0 22 C-2.97 22.33 -5.94 22.66 -9 23 C-11.06190966 25.2558702 -11.06190966 25.2558702 -11.9375 28.25 C-12.29714844 29.20390625 -12.65679687 30.1578125 -13.02734375 31.140625 C-13.34832031 32.08421875 -13.66929688 33.0278125 -14 34 C-15.76597176 38.82246133 -15.76597176 38.82246133 -17.8125 40.375 C-23.37429678 41.96408479 -28.54015191 38.39038143 -33.37890625 35.9609375 C-36.33054817 34.87881543 -37.12036042 34.95033817 -40 36 C-42.66364093 38.02635308 -44.95280955 40.44328507 -47.3125 42.8125 C-48.29959961 43.75706055 -48.29959961 43.75706055 -49.30664062 44.72070312 C-49.92345703 45.33494141 -50.54027344 45.94917969 -51.17578125 46.58203125 C-52.02523315 47.42084839 -52.02523315 47.42084839 -52.8918457 48.27661133 C-54.22590104 49.94904432 -54.22590104 49.94904432 -53.75537109 52.04052734 C-52.33367707 55.728477 -50.57265754 59.27044669 -48.86328125 62.83203125 C-47.71589468 67.04257654 -48.09352368 69.08113201 -50 73 C-52.66167851 74.51664315 -54.71228243 75.45933122 -57.5625 76.375 C-58.93928098 76.86062358 -60.3156083 77.3475359 -61.69140625 77.8359375 C-62.78324219 78.22007812 -63.87507813 78.60421875 -65 79 C-66.2505313 80.02714661 -66.2505313 80.02714661 -66.11352539 82.22485352 C-66.10567017 83.66235962 -66.10567017 83.66235962 -66.09765625 85.12890625 C-66.09282227 86.68061523 -66.09282227 86.68061523 -66.08789062 88.26367188 C-66.07951172 89.35228516 -66.07113281 90.44089844 -66.0625 91.5625 C-66.05798828 92.65498047 -66.05347656 93.74746094 -66.04882812 94.87304688 C-66.03699826 97.58208495 -66.02051543 100.29101599 -66 103 C-64.95199219 103.37511719 -63.90398438 103.75023437 -62.82421875 104.13671875 C-61.4449808 104.65276016 -60.06609245 105.16973663 -58.6875 105.6875 C-57.99720703 105.93177734 -57.30691406 106.17605469 -56.59570312 106.42773438 C-53.13489034 107.74852766 -51.33664908 108.56744893 -49.01171875 111.5546875 C-47.35001243 115.57101243 -48.63651255 117.99506411 -50.0625 121.9375 C-52.65649942 126.03769263 -56.01104684 128.32806463 -60 131 C-59.90555882 135.62761769 -59.31629193 138.13163793 -56.0625 141.5 C-40.20003516 155.85633182 -21.19037967 162.96937335 0.19140625 162.30078125 C4.76373016 161.9396849 8.96129818 161.05589008 13.3515625 159.75390625 C16.21615146 158.93847016 19.05714487 158.44444879 22 158 C22.31376521 159.54140966 22.62594465 161.08314215 22.9375 162.625 C23.19853516 163.91277344 23.19853516 163.91277344 23.46484375 165.2265625 C24.02773263 168.14372382 24.52275213 171.0677203 25 174 C23.1724252 174.68229459 21.33754567 175.34503323 19.5 176 C18.4790625 176.37125 17.458125 176.7425 16.40625 177.125 C12.40250385 178.15348525 9.11955879 178.143289 5 178 C5.40992188 179.08539063 5.81984375 180.17078125 6.2421875 181.2890625 C6.78651757 182.73435269 7.33078509 184.17966644 7.875 185.625 C8.14441406 186.33785156 8.41382813 187.05070313 8.69140625 187.78515625 C9.46948708 189.8537126 10.23699645 191.92584049 11 194 C11.38929688 195.05703125 11.77859375 196.1140625 12.1796875 197.203125 C12.99494342 199.98275946 13.26809781 202.23839956 13.25 205.125 C13.25773437 206.36636719 13.25773437 206.36636719 13.265625 207.6328125 C12.97429882 210.22904288 12.46415768 211.83770091 11 214 C7.875 214.75 7.875 214.75 5 215 C5.495 214.34 5.99 213.68 6.5 213 C11.23452441 203.53095118 5.3182086 191.91770833 2.25 182.625 C1.8375 181.42875 1.425 180.2325 1 179 C-3.95 179 -8.9 179 -14 179 C-13.67 181.371875 -13.34 183.74375 -13 186.1875 C-11.68861615 196.45077169 -11.81828898 206.672757 -12 217 C-13.32 217 -14.64 217 -16 217 C-16.04898438 215.69289063 -16.09796875 214.38578125 -16.1484375 213.0390625 C-16.62734645 201.28311964 -17.53193083 189.67328783 -19 178 C-20.2375 177.79697266 -20.2375 177.79697266 -21.5 177.58984375 C-36.25345345 174.84003714 -48.18846806 169.27317846 -60 160 C-61.051875 159.34 -62.10375 158.68 -63.1875 158 C-79.75776908 146.21669754 -89.94599892 125.62674901 -93.6640625 106.00732422 C-97.66484297 82.1014979 -92.57046279 57.81656868 -78.8203125 37.83203125 C-64.35258279 17.76045772 -44.38558072 5.03328118 -19.9453125 0.4921875 C-13.24688227 -0.34345825 -6.75069298 -0.17922194 0 0 Z " fill="#FDC301" transform="translate(127,58)"/>
<path d="M0 0 C2.04435472 1.46081286 3.94924134 3.00377925 5.8515625 4.64453125 C6.4703125 5.15757813 7.0890625 5.670625 7.7265625 6.19921875 C12.89742233 10.85745024 16.27980849 15.82215415 17.8515625 22.64453125 C17.76613602 24.38836671 17.61944194 26.12973026 17.42895508 27.86523438 C16.53291078 36.53374297 15.72790372 44.54966652 21.15405273 51.86157227 C25.57528502 56.90636026 30.55182728 61.30732324 35.6015625 65.70703125 C38.14091518 68.02833187 40.66308463 70.36703628 43.18170166 72.71080017 C44.74182819 74.15065267 46.31711697 75.57431177 47.90960693 76.97828674 C53.0557191 81.56945353 57.39778385 85.80102609 58.2421875 92.953125 C58.19578125 93.98566406 58.149375 95.01820313 58.1015625 96.08203125 C58.06546875 97.13261719 58.029375 98.18320313 57.9921875 99.265625 C57.94578125 100.05066406 57.899375 100.83570313 57.8515625 101.64453125 C58.81835938 101.36738281 59.78515625 101.09023437 60.78125 100.8046875 C73.0321241 97.36351941 84.08384708 96.47895569 96.8515625 96.64453125 C96.8515625 97.63453125 96.8515625 98.62453125 96.8515625 99.64453125 C95.61664063 99.68191406 94.38171875 99.71929687 93.109375 99.7578125 C81.47263027 100.18430821 70.28434162 101.44910628 58.8515625 103.64453125 C58.92375 104.74925781 58.9959375 105.85398437 59.0703125 106.9921875 C59.85760772 119.88502383 59.96479772 132.73048992 59.8515625 145.64453125 C59.1915625 145.64453125 58.5315625 145.64453125 57.8515625 145.64453125 C57.83094757 145.02114365 57.81033264 144.39775604 57.78909302 143.75547791 C57.57222949 137.24975731 57.34309769 130.74454991 57.10693359 124.23950195 C57.02047016 121.81383025 56.93710389 119.38804605 56.85693359 116.9621582 C56.74095571 113.46921938 56.61373545 109.9768407 56.484375 106.484375 C56.45095001 105.40494125 56.41752502 104.32550751 56.38308716 103.21336365 C56.07683523 95.37842486 55.78158152 89.0490567 50.12890625 83.1171875 C48.92210205 81.84125732 48.92210205 81.84125732 47.69091797 80.53955078 C46.74615524 79.57289055 45.79957888 78.60800079 44.8515625 77.64453125 C44.3183136 77.09819031 43.7850647 76.55184937 43.23565674 75.98895264 C39.62331884 72.29340667 35.97989274 68.63016771 32.31958008 64.98217773 C30.38959467 63.05763239 28.46511518 61.12769366 26.54101562 59.19726562 C25.31282116 57.96973066 24.08431724 56.74250523 22.85546875 55.515625 C22.28155899 54.93969101 21.70764923 54.36375702 21.11634827 53.77037048 C18.2553699 50.84897925 18.2553699 50.84897925 14.8515625 48.64453125 C14.7484375 49.36640625 14.6453125 50.08828125 14.5390625 50.83203125 C12.87411513 57.64317956 8.62946423 61.09789343 2.8515625 64.64453125 C-7.09374615 69.48693115 -18.51960266 71.78466388 -29.37890625 68.73828125 C-39.11095009 64.88986848 -47.85107516 59.36677823 -52.5625 49.76171875 C-57.25182019 38.6802526 -57.61109688 28.88852713 -53.1484375 17.64453125 C-47.89049504 7.10014799 -40.09641886 0.00496922 -29.1484375 -4.35546875 C-19.05630557 -7.53459699 -8.75761356 -5.52525801 0 0 Z " fill="#292F51" transform="translate(140.1484375,119.35546875)"/>
<path d="M0 0 C3.06933115 1.40397629 5.78228183 3.17378328 8.56713867 5.07177734 C18.93059466 12.06772623 29.794696 16.54568227 42.0234375 19.359375 C43.00183594 19.67648438 43.00183594 19.67648438 44 20 C49.51477909 31.02955818 47.21470052 48.05604517 47 60 C46.32533691 60.30059326 45.65067383 60.60118652 44.95556641 60.91088867 C31.66803025 66.95819522 24.68068115 77.1277023 16.56884766 88.78125 C14.12059155 92.24370743 11.56726608 95.62525489 9 99 C4.9151654 98.81000769 3.31771565 98.30293818 0.3125 95.4375 C-2.86595792 91.14812475 -5.18149291 86.63349921 -4.80859375 81.22265625 C-3.81192342 77.25041944 -2.12153105 74.02422471 -0.1875 70.4375 C8.47808508 53.65539426 12.78210022 35.14988277 7.2890625 16.734375 C5.29034364 10.94414704 2.73218518 5.48258492 0 0 Z " fill="#282D4F" transform="translate(64,216)"/>
<path d="M0 0 C10.05206755 8.1320097 19.14218822 11.39565463 32.125 10.3125 C40.56388654 9.05764698 47.11007259 6.09116972 54.125 1.3125 C55.115 0.6525 56.105 -0.0075 57.125 -0.6875 C56.64281006 0.30479614 56.64281006 0.30479614 56.15087891 1.31713867 C54.89620492 4.9805359 54.77253995 8.40971859 54.7109375 12.23828125 C54.69157135 12.98587204 54.6722052 13.73346283 54.6522522 14.50370789 C54.59276082 16.87735806 54.54619408 19.25105754 54.5 21.625 C54.46179211 23.24025482 54.42273875 24.85548987 54.3828125 26.47070312 C54.2870847 30.4178071 54.20294233 34.36500639 54.125 38.3125 C52.06347611 38.96144237 50.00073742 39.6065264 47.9375 40.25 C46.78894531 40.60964844 45.64039063 40.96929687 44.45703125 41.33984375 C26.67193146 46.53150828 7.23383651 42.92661217 -8.79663086 34.15893555 C-13.70568728 31.27613348 -18.12360515 27.96916365 -22.375 24.1875 C-22.9213208 23.70925781 -23.4676416 23.23101562 -24.03051758 22.73828125 C-26.75799526 20.13282347 -27.88019312 18.29353909 -28.8828125 14.6328125 C-28.875 11.3125 -28.875 11.3125 -26.25 8.3125 C-7.05499909 -6.04505109 -7.05499909 -6.04505109 0 0 Z " fill="#64B3F1" transform="translate(94.875,177.6875)"/>
<path d="M0 0 C3.3 0 6.6 0 10 0 C10 11.22 10 22.44 10 34 C3.565 34.495 3.565 34.495 -3 35 C-15.13471183 39.04490394 -23.86038184 45.63817788 -30 57 C-34.53926465 68.44978696 -33.97522886 77.9355745 -29.19140625 89.15234375 C-28.22723715 91.45686595 -27.51038436 93.56540796 -27 96 C-27.58007812 96.18175781 -28.16015625 96.36351562 -28.7578125 96.55078125 C-33.39147293 98.0418106 -37.69762355 99.68333576 -42 102 C-41.49125088 99.4562544 -40.98501324 96.94414027 -40.3125 94.4375 C-39.91779426 91.35879521 -40.16892912 90.51173074 -42 88 C-44.53863626 86.76958265 -46.92314649 85.75600149 -49.5625 84.8125 C-56.92849265 82.07150735 -56.92849265 82.07150735 -58 81 C-58.33509556 77.21723777 -58.32493683 73.42069889 -58.375 69.625 C-58.41238281 68.55765625 -58.44976562 67.4903125 -58.48828125 66.390625 C-58.52089901 63.51301413 -58.48700603 60.83674463 -58 58 C-55.80078125 55.91015625 -55.80078125 55.91015625 -53 55 C-51.71029297 54.42185547 -51.71029297 54.42185547 -50.39453125 53.83203125 C-49.54246094 53.49558594 -48.69039062 53.15914062 -47.8125 52.8125 C-46.95269531 52.46832031 -46.09289062 52.12414062 -45.20703125 51.76953125 C-43 51 -43 51 -41 51 C-39.73009273 45.30706344 -40.28503609 42.43335828 -43 37.3125 C-46.05726681 31.50505792 -46.05726681 31.50505792 -45.77832031 29.04492188 C-44.23334988 24.98573983 -40.76734174 22.2133653 -37.75 19.1875 C-37.08097656 18.48173828 -36.41195312 17.77597656 -35.72265625 17.04882812 C-35.06652344 16.38689453 -34.41039063 15.72496094 -33.734375 15.04296875 C-33.13850586 14.43477295 -32.54263672 13.82657715 -31.92871094 13.19995117 C-30 12 -30 12 -27.43212891 12.2331543 C-24.65730506 13.10805108 -22.21305408 14.29760263 -19.625 15.625 C-14.79120466 17.90780727 -12.11378742 18.47731637 -7 17 C-6.81824219 16.34773438 -6.63648438 15.69546875 -6.44921875 15.0234375 C-2.98757764 2.98757764 -2.98757764 2.98757764 0 0 Z " fill="#FDFDFC" transform="translate(118,80)"/>
<path d="M0 0 C3.31940087 1.45130755 5.52775203 3.30629947 8.125 5.8125 C12.65965112 9.95480194 17.39278449 12.56513398 23 15 C21.71664665 19.00382589 20.24853072 22.83746724 18.5625 26.6875 C9.68361194 47.79777663 10.14096357 70.92033706 15 93 C15.34540831 94.99795 15.68314036 96.99732402 16 99 C15.33355469 98.55269531 14.66710937 98.10539062 13.98046875 97.64453125 C2.21792331 89.92895949 -9.54852316 85.70585821 -23 82 C-21.59277602 67.95835203 -14.94960449 56.69291682 -7.67089844 44.85302734 C-0.79889287 34.06907822 -0.79889287 34.06907822 1.375 21.75 C1.36210937 20.77546875 1.34921875 19.8009375 1.3359375 18.796875 C1.12778684 15.98505537 1.12778684 15.98505537 -0.046875 13.50390625 C-1.2067803 10.45677799 -1.01268814 8.40531154 -0.625 5.1875 C-0.51414063 4.21167969 -0.40328125 3.23585937 -0.2890625 2.23046875 C-0.14597656 1.12638672 -0.14597656 1.12638672 0 0 Z " fill="#282E50" transform="translate(159,245)"/>
<path d="M0 0 C2.01953125 0.8046875 2.01953125 0.8046875 3.8125 1.875 C16.83783353 8.74068983 33.37469181 7.19240252 47 3 C47 9.27 47 15.54 47 22 C27.06816064 28.24128303 7.52492811 29.72657625 -11.59545898 19.85742188 C-14.44103294 18.3047305 -17.22967261 16.68344379 -20 15 C-18.3908917 10.8791129 -15.42239904 8.19800984 -12.25 5.25 C-11.73695312 4.74339844 -11.22390625 4.23679688 -10.6953125 3.71484375 C-7.11071022 0.37341801 -4.87503667 -0.76235141 0 0 Z " fill="#65B4EE" transform="translate(102,194)"/>
<path d="M0 0 C5.0410931 2.25117516 8.0616753 5.52325319 10.671875 10.3515625 C12.75041915 16.58719495 11.71410415 21.4997074 8.94921875 27.265625 C6.43638816 31.36914651 3.26766382 33.81963289 -1.328125 35.3515625 C-8.7448251 36.01299336 -14.37615766 36.06353665 -20.328125 31.3515625 C-25.32217337 24.91186855 -26.13975193 19.31922406 -25.328125 11.3515625 C-20.3553526 1.02349675 -10.99196934 -3.06152166 0 0 Z " fill="#FCFCFC" transform="translate(130.328125,135.6484375)"/>
<path d="M0 0 C2.48573168 2.48573168 2.37999595 3.42488353 2.5 6.875 C2.27190456 17.19296417 -4.08618199 25.19418508 -9.59790039 33.49829102 C-15.81140818 43.08165899 -20.20837108 53.93983207 -23 65 C-29.625 65.125 -29.625 65.125 -33 64 C-33.05880857 60.04173069 -33.09386513 56.08357608 -33.125 52.125 C-33.14175781 51.01640625 -33.15851563 49.9078125 -33.17578125 48.765625 C-33.23771409 38.23704284 -32.37914908 28.07430356 -26.0625 19.3125 C-22.96545127 16.97391218 -20.79319808 16.17990366 -17.125 15.0625 C-9.8527345 12.82900323 -5.4093189 9.71384207 -1.5625 3.125 C-1.046875 2.09375 -0.53125 1.0625 0 0 Z " fill="#292F4F" transform="translate(155,260)"/>
<path d="M0 0 C0.57136675 8.4117883 -0.3564557 16.17853428 -1.875 24.4375 C-2.04870117 25.38447754 -2.22240234 26.33145508 -2.40136719 27.30712891 C-3.3036326 32.00608049 -4.33212848 36.49975207 -6 41 C-9.91716868 40.52488016 -13.83363596 40.04420382 -17.75 39.5625 C-18.86117187 39.42779297 -19.97234375 39.29308594 -21.1171875 39.15429688 C-22.18710938 39.02216797 -23.25703125 38.89003906 -24.359375 38.75390625 C-25.83615723 38.57323608 -25.83615723 38.57323608 -27.34277344 38.38891602 C-29.62199202 38.05532586 -31.78143734 37.60987459 -34 37 C-28.81952801 26.15924385 -13.50932905 0 0 0 Z " fill="#2A2F50" transform="translate(111,280)"/>
<path d="M0 0 C2.64 0 5.28 0 8 0 C8 30.36 8 60.72 8 92 C5.36 92 2.72 92 0 92 C0 61.64 0 31.28 0 0 Z " fill="#309DED" transform="translate(423,370)"/>
<path d="M0 0 C4.95 0 9.9 0 15 0 C23.92826793 21.56260935 23.92826793 21.56260935 23 31 C21.20636089 33.8100346 19.98119065 35.50940468 17 37 C14.45384991 37.23172827 11.92603775 37.41894529 9.375 37.5625 C8.66859375 37.60568359 7.9621875 37.64886719 7.234375 37.69335938 C5.48981463 37.79944751 3.74493303 37.90022889 2 38 C1.97494385 37.45287354 1.9498877 36.90574707 1.92407227 36.34204102 C1.36597199 24.22202656 0.73716012 12.11048775 0 0 Z " fill="#2A2F4F" transform="translate(113,237)"/>
<path d="M0 0 C3.89238055 6.64948344 3.42261926 11.62295821 1.8125 18.9375 C-0.48963567 27.51429381 -4.50374347 34.01508382 -12 39 C-12.66 39 -13.32 39 -14 39 C-13.93039063 38.27039063 -13.86078125 37.54078125 -13.7890625 36.7890625 C-13.27752203 26.92363918 -15.87818243 19.03680301 -19.33569336 9.90014648 C-20.01641423 7.95304964 -20.5297371 6.00732848 -21 4 C-20.05640625 3.81824219 -20.05640625 3.81824219 -19.09375 3.6328125 C-14.88724867 2.80925049 -10.71104324 1.9565569 -6.5625 0.875 C-3 0 -3 0 0 0 Z " fill="#2B304E" transform="translate(153,232)"/>
<path d="M0 0 C1.00341431 1.00667725 1.00341431 1.00667725 2.02709961 2.03369141 C4.83593467 4.84271117 7.66525436 7.63063246 10.49525452 10.41830444 C13.42118313 13.30394455 16.33905751 16.19767278 19.2565918 19.09179688 C20.79298007 20.61305714 22.33204428 22.13161964 23.8737793 23.64746094 C26.11183967 25.84898837 28.3399412 28.06019152 30.56640625 30.2734375 C31.25191055 30.94345795 31.93741486 31.61347839 32.64369202 32.30380249 C37.32145619 36.9799214 41.58603161 41.49368775 42.390625 48.30859375 C42.34421875 49.34113281 42.2978125 50.37367188 42.25 51.4375 C42.21390625 52.48808594 42.1778125 53.53867188 42.140625 54.62109375 C42.09421875 55.40613281 42.0478125 56.19117188 42 57 C42.96679688 56.72285156 43.93359375 56.44570312 44.9296875 56.16015625 C57.1805616 52.71898816 68.23228458 51.83442444 81 52 C81 52.99 81 53.98 81 55 C79.76507813 55.03738281 78.53015625 55.07476562 77.2578125 55.11328125 C65.62106777 55.53977696 54.43277912 56.80457503 43 59 C43.10828125 60.65708984 43.10828125 60.65708984 43.21875 62.34765625 C44.00604522 75.24049258 44.11323522 88.08595867 44 101 C43.34 101 42.68 101 42 101 C41.97938507 100.3766124 41.95877014 99.75322479 41.93753052 99.11094666 C41.72066699 92.60522606 41.49153519 86.10001866 41.25537109 79.5949707 C41.16890766 77.169299 41.08554139 74.7435148 41.00537109 72.31762695 C40.88939321 68.82468813 40.76217295 65.33230945 40.6328125 61.83984375 C40.59938751 60.76041 40.56596252 59.68097626 40.53152466 58.5688324 C40.22522059 50.73255983 39.92835996 44.40355232 34.27734375 38.46875 C33.47280762 37.61796875 32.66827148 36.7671875 31.83935547 35.890625 C30.89492217 34.92510475 29.94832217 33.96170092 29 33 C28.20012665 32.18402344 28.20012665 32.18402344 27.38409424 31.3515625 C23.1428001 27.03480372 18.85619249 22.76453609 14.5625 18.5 C13.27124877 17.21377815 11.98023158 15.9273213 10.68945312 14.640625 C8.34591763 12.30519282 6.00114433 9.97102154 3.65454102 7.63867188 C2.10103338 6.09445128 0.54887107 4.54887107 -1 3 C-0.67 2.01 -0.34 1.02 0 0 Z " fill="#2F3345" transform="translate(156,164)"/>
<path d="M0 0 C3.61465597 3.30033806 4.25174963 6.3940102 4.5625 11.1875 C4.44443537 22.10191936 -2.35712128 31.3156312 -7.83666992 40.36938477 C-8.47439331 41.42403931 -8.47439331 41.42403931 -9.125 42.5 C-9.54821533 43.19859131 -9.97143066 43.89718262 -10.4074707 44.61694336 C-15.37457633 53.01291044 -19.35907395 62.33881739 -21 72 C-22.98 71.67 -24.96 71.34 -27 71 C-26.01 70.505 -26.01 70.505 -25 70 C-24.65278393 67.66869209 -24.322137 65.33490542 -24 63 C-19.55997484 49.34192951 -12.34076267 37.31896505 -4.4453125 25.40234375 C-1.27160558 20.1271282 -0.75533914 15.91212894 -0.9375 9.8125 C-1.11958369 2.23916737 -1.11958369 2.23916737 0 0 Z " fill="#60ABE8" transform="translate(157,255)"/>
<path d="M0 0 C1.23556641 0.01740234 1.23556641 0.01740234 2.49609375 0.03515625 C3.32238281 0.04417969 4.14867188 0.05320312 5 0.0625 C5.63808594 0.07410156 6.27617188 0.08570313 6.93359375 0.09765625 C6.66804688 0.58492188 6.4025 1.0721875 6.12890625 1.57421875 C-0.45921581 14.79855136 0.4298597 30.6537052 -0.06640625 45.09765625 C-3.03640625 44.76765625 -6.00640625 44.43765625 -9.06640625 44.09765625 C-8.58172093 39.25080307 -7.74802125 34.65226476 -6.62890625 29.91015625 C-5.0042826 22.63501228 -4.30932022 15.36657055 -3.71313477 7.94262695 C-3.64151123 7.06952881 -3.5698877 6.19643066 -3.49609375 5.296875 C-3.43663574 4.51143311 -3.37717773 3.72599121 -3.31591797 2.91674805 C-2.95771216 0.30521036 -2.64615715 0.12505469 0 0 Z " fill="#343751" transform="translate(118.06640625,277.90234375)"/>
<path d="M0 0 C-0.66 0.61875 -1.32 1.2375 -2 1.875 C-4.78984472 6.23413237 -4.72055051 9.94786424 -4 15 C-2.68772566 18.03465702 -2.68772566 18.03465702 -1 20 C-6.82618947 19.52269189 -10.88664965 17.80741399 -15.9375 14.9375 C-16.62134766 14.56044922 -17.30519531 14.18339844 -18.00976562 13.79492188 C-19.67857796 12.87299058 -21.34007864 11.93784488 -23 11 C-21.57201965 6.71605896 -18.43472604 5.80818812 -14.625 3.875 C-13.59632813 3.33552734 -13.59632813 3.33552734 -12.546875 2.78515625 C-4.49793145 -1.39590976 -4.49793145 -1.39590976 0 0 Z " fill="#2A2B38" transform="translate(218,136)"/>
<path d="M0 0 C0.08194106 4.17899424 -0.06084456 7.93032642 -1 12 C-1.144375 13.010625 -1.28875 14.02125 -1.4375 15.0625 C-1.95238889 17.75136418 -2.64276564 19.64746044 -4 22 C-8.60836476 20.68332435 -12.22762713 18.98280646 -16 16 C-16.33 14.68 -16.66 13.36 -17 12 C-12.38 12 -7.76 12 -3 12 C-3 11.01 -3 10.02 -3 9 C-7.29 9 -11.58 9 -16 9 C-12.27576547 4.53091856 -6.13831754 0 0 0 Z " fill="#809FE4" transform="translate(240,207)"/>
<path d="M0 0 C0.94875 0.04125 1.8975 0.0825 2.875 0.125 C2.26011719 0.88683594 2.26011719 0.88683594 1.6328125 1.6640625 C-6.38795982 11.91069509 -6.24809313 22.54787864 -6.6875 35.125 C-6.73068359 36.28128906 -6.77386719 37.43757813 -6.81835938 38.62890625 C-6.92367917 41.46083854 -7.02581087 44.29284747 -7.125 47.125 C-8.445 46.795 -9.765 46.465 -11.125 46.125 C-11.7129246 12.83037748 -11.7129246 12.83037748 -5.125 2.125 C-3.125 0.125 -3.125 0.125 0 0 Z " fill="#EDB707" transform="translate(129.125,276.875)"/>
<path d="M0 0 C4.43454041 7.57567321 3.05463112 13.90988998 1 22 C0.34 22 -0.32 22 -1 22 C-2.32861328 20.34765625 -2.32861328 20.34765625 -3.8203125 18.0625 C-4.35527344 17.25039062 -4.89023438 16.43828125 -5.44140625 15.6015625 C-6.27478516 14.31378906 -6.27478516 14.31378906 -7.125 13 C-7.68832031 12.14148438 -8.25164062 11.28296875 -8.83203125 10.3984375 C-10.22760249 8.26960002 -11.61655555 6.13673026 -13 4 C-10.84184495 1.84184495 -9.94361015 1.55101467 -7.0625 0.875 C-6.37285156 0.70742187 -5.68320313 0.53984375 -4.97265625 0.3671875 C-3 0 -3 0 0 0 Z " fill="#2C3352" transform="translate(153,232)"/>
<path d="M0 0 C0.99 0 1.98 0 3 0 C3.6207275 14.50663163 1.22239002 28.13498879 -3 42 C-4.32 42 -5.64 42 -7 42 C-6.41349732 38.34046768 -5.75881292 34.69847357 -5.0625 31.05859375 C-3.29733313 21.75907742 -1.60462745 12.63934342 -1.17578125 3.16796875 C-1 1 -1 1 0 0 Z " fill="#F2F2F4" transform="translate(112,279)"/>
<path d="M0 0 C-2.58090767 1.31746333 -5.16450458 2.62909617 -7.75 3.9375 C-8.47960937 4.31068359 -9.20921875 4.68386719 -9.9609375 5.06835938 C-10.66992188 5.42607422 -11.37890625 5.78378906 -12.109375 6.15234375 C-12.75874023 6.48226318 -13.40810547 6.81218262 -14.07714844 7.15209961 C-18.33522905 9.02974232 -22.11693956 9.1088306 -26.75 9.0625 C-27.92046875 9.05347656 -29.0909375 9.04445313 -30.296875 9.03515625 C-31.18890625 9.02355469 -32.0809375 9.01195312 -33 9 C-33 6.36 -33 3.72 -33 1 C-31.90328979 1.01571045 -31.90328979 1.01571045 -30.78442383 1.03173828 C-27.46048441 1.07340289 -24.13660005 1.09935956 -20.8125 1.125 C-19.08676758 1.15013672 -19.08676758 1.15013672 -17.32617188 1.17578125 C-16.21435547 1.18222656 -15.10253906 1.18867188 -13.95703125 1.1953125 C-12.42526245 1.21102295 -12.42526245 1.21102295 -10.86254883 1.22705078 C-7.96383668 1.13974484 -7.96383668 1.13974484 -5.31518555 -0.07470703 C-3 -1 -3 -1 0 0 Z " fill="#F89780" transform="translate(421,250)"/>
<path d="M0 0 C1.32 0 2.64 0 4 0 C4.31919939 1.31088682 4.62985947 2.62385248 4.9375 3.9375 C5.19853516 5.03384766 5.19853516 5.03384766 5.46484375 6.15234375 C6.90041765 13.79127346 7.13267923 21.30499598 7.0625 29.0625 C7.05798828 30.02349609 7.05347656 30.98449219 7.04882812 31.97460938 C7.03717706 34.31647422 7.02082025 36.65820181 7 39 C5.68 39 4.36 39 3 39 C2.92652344 37.03933594 2.92652344 37.03933594 2.8515625 35.0390625 C2.37265355 23.28311964 1.46806917 11.67328783 0 0 Z " fill="#F0F0F2" transform="translate(108,236)"/>
<path d="M0 0 C2.01953125 0.8046875 2.01953125 0.8046875 3.8125 1.875 C16.06262936 8.33207753 32.03169551 7.4541379 45.0078125 3.65625 C45.66523438 3.4396875 46.32265625 3.223125 47 3 C46 6 46 6 44.19921875 6.94921875 C30.92981569 10.84955651 15.64286915 10.85159822 3 5 C2.34 4.60554687 1.68 4.21109375 1 3.8046875 C-1.846679 2.659344 -3.11633004 2.93624619 -6 4 C-8.19210347 5.80377192 -10.18071209 7.57555671 -12.1875 9.5625 C-17.75975836 15 -17.75975836 15 -20 15 C-18.3908917 10.8791129 -15.42239904 8.19800984 -12.25 5.25 C-11.73695312 4.74339844 -11.22390625 4.23679688 -10.6953125 3.71484375 C-7.11071022 0.37341801 -4.87503667 -0.76235141 0 0 Z " fill="#2A364C" transform="translate(102,194)"/>
<path d="M0 0 C0.99 0.33 1.98 0.66 3 1 C8.08813236 1.32951714 13.00001322 1.02563831 18 0 C18.33 1.32 18.66 2.64 19 4 C15.13356108 6.70865129 12.51499094 7.38844085 7.8125 7.3125 C6.76707031 7.30863281 5.72164063 7.30476562 4.64453125 7.30078125 C2 7 2 7 0 5 C-0.125 2.375 -0.125 2.375 0 0 Z " fill="#F89780" transform="translate(347,204)"/>
<path d="M0 0 C1.34553453 2.69106907 1.20594114 4.87165422 1.25 7.875 C1.27578125 8.92429688 1.3015625 9.97359375 1.328125 11.0546875 C0.96595818 14.30556586 0.18132146 15.62350767 -2 18 C-5.13175692 14.96611049 -6.33013899 12.72649054 -6.5 8.4375 C-6.35719229 5.14193752 -6.13637951 4.18638533 -4.125 1.4375 C-2 0 -2 0 0 0 Z " fill="#282936" transform="translate(221,137)"/>
<path d="M0 0 C0 0.99 0 1.98 0 3 C-1.28132813 3.04898438 -2.56265625 3.09796875 -3.8828125 3.1484375 C-14.04582388 3.57468546 -23.96009101 4.28789631 -34 6 C-34.33 5.34 -34.66 4.68 -35 4 C-23.14750429 0.41721137 -12.3530038 -0.16019746 0 0 Z " fill="#3E4662" transform="translate(237,216)"/>
<path d="M0 0 C1.875 0.3125 1.875 0.3125 4 1 C6.32579101 4.48868651 6.41865457 5.89718519 6 10 C4.5 12.375 4.5 12.375 3 14 C1.0625 13.6875 1.0625 13.6875 -1 13 C-2.17664871 9.47005387 -2.19850603 6.70544587 -2 3 C-1.34 2.01 -0.68 1.02 0 0 Z " fill="#1B181D" transform="translate(353,158)"/>
<path d="M0 0 C0.99 0 1.98 0 3 0 C4.5 2.046875 4.5 2.046875 6 4.75 C7.45797812 7.34702353 8.83025775 9.78475575 10.67578125 12.125 C12.53455001 14.75688497 12.21392142 16.86248587 12 20 C11.34 20 10.68 20 10 20 C8.67138672 18.34765625 8.67138672 18.34765625 7.1796875 16.0625 C6.64472656 15.25039062 6.10976562 14.43828125 5.55859375 13.6015625 C4.72521484 12.31378906 4.72521484 12.31378906 3.875 11 C3.31167969 10.14148438 2.74835938 9.28296875 2.16796875 8.3984375 C0.77239751 6.26960002 -0.61655555 4.13673026 -2 2 C-1.34 1.34 -0.68 0.68 0 0 Z " fill="#63ABE3" transform="translate(142,234)"/>
<path d="M0 0 C0.33 0 0.66 0 1 0 C1.91567112 14.01303843 2.12311627 27.95906245 2 42 C1.34 42 0.68 42 0 42 C-1.8490566 11.3254717 -1.8490566 11.3254717 0 0 Z " fill="#363C50" transform="translate(198,223)"/>
<path d="M0 0 C8.33333333 8.33333333 16.66666667 16.66666667 25 25 C24.34 25.66 23.68 26.32 23 27 C15 19 7 11 -1 3 C-0.67 2.01 -0.34 1.02 0 0 Z " fill="#32374A" transform="translate(156,164)"/>
<path d="M0 0 C0.99 0.33 1.98 0.66 3 1 C2.01 1.33 1.02 1.66 0 2 C-1.34393909 6.03181728 -1.45861858 9.7807091 -1 14 C0.35885116 16.40083438 0.35885116 16.40083438 2 18 C2 18.66 2 19.32 2 20 C-1.16115776 18.63016497 -1.9927092 18.0109362 -4 15 C-4.72534086 10.02382431 -4.74035363 6.15680255 -2 1.875 C-1.34 1.25625 -0.68 0.6375 0 0 Z " fill="#E5B71D" transform="translate(217,136)"/>
<path d="M0 0 C-0.33 0.99 -0.66 1.98 -1 3 C-8.98984624 6.90959466 -17.44235049 6.03691228 -26 5 C-26 4.67 -26 4.34 -26 4 C-25.10539062 3.96261719 -24.21078125 3.92523438 -23.2890625 3.88671875 C-16.48020314 3.51651424 -10.34849454 2.85568768 -3.890625 0.62109375 C-2 0 -2 0 0 0 Z " fill="#2E3C54" transform="translate(149,197)"/>
<path d="M0 0 C3.26008643 3.16952847 6.22237877 6.39937989 9 10 C5.41087588 10 4.89142971 9.33563446 2.3125 7 C1.68988281 6.443125 1.06726563 5.88625 0.42578125 5.3125 C-0.04472656 4.879375 -0.51523438 4.44625 -1 4 C-0.67 2.68 -0.34 1.36 0 0 Z " fill="#383F54" transform="translate(156,164)"/>
<path d="M0 0 C0.66 0.33 1.32 0.66 2 1 C0.94660446 4.27723056 -0.63763259 5.60460094 -3.5 7.3125 C-4.655 7.869375 -5.81 8.42625 -7 9 C-7.66 8.67 -8.32 8.34 -9 8 C-6.03 5.36 -3.06 2.72 0 0 Z " fill="#D1B5B8" transform="translate(371,284)"/>
<path d="M0 0 C0.33 0 0.66 0 1 0 C1.18175781 0.90492188 1.18175781 0.90492188 1.3671875 1.828125 C1.53476563 2.62734375 1.70234375 3.4265625 1.875 4.25 C2.03742188 5.03890625 2.19984375 5.8278125 2.3671875 6.640625 C2.99150075 8.96831144 3.84838542 10.89031952 5 13 C1.125 11.125 1.125 11.125 0 10 C-0.07205511 8.31391034 -0.08386068 6.62499341 -0.0625 4.9375 C-0.05347656 4.01839844 -0.04445312 3.09929687 -0.03515625 2.15234375 C-0.02355469 1.44207031 -0.01195312 0.73179687 0 0 Z " fill="#CFA61E" transform="translate(214,143)"/>
</svg>
